# xmcd
#
# Track frame offsets: 
#        150
#        21787
#        44220
#        59665
#        82957
#        100104
#        121090
#        140860
#
# Disc length: 2178 seconds
#
# Revision: 0
# Processed by: cddbd v1.5.1PL0 Copyright (c) Steve Scherf et al.
# Submitted via: ExactAudioCopy v0.95a5
#
DISCID=6f088008
DTITLE=BOYd KOSIYABONG - Seasons Change The Remixes
DYEAR=1995
DGENRE=R&B
TTITLE0=Seasons Change Original Version
TTITLE1=Seasons Change Z-POP MYX
TTITLE2=Seasons Change JR.HX MIX
TTITLE3=Seasons Change SUMMER MIX (Feat. Joey Boy)
TTITLE4=Seasons Change WINTER MIX (Feat. Pulse-Head)
TTITLE5=Seasons Change NATURAL MIX (Feat. Thee Chaijadej)
TTITLE6=Seasons Change INSTRUMENTAL
TTITLE7=BONUS TRACK
EXTD=
EXTT0=
EXTT1=
EXTT2=
EXTT3=
EXTT4=
EXTT5=
EXTT6=
EXTT7=
PLAYORDER=
